<?xml version="1.0" standalone="no"?>
<!DOCTYPE svg PUBLIC "-//W3C//DTD SVG 20010904//EN"
 "http://www.w3.org/TR/2001/REC-SVG-20010904/DTD/svg10.dtd">
<svg version="1.0" xmlns="http://www.w3.org/2000/svg"
 width="48.000000pt" height="48.000000pt" viewBox="0 0 48.000000 48.000000"
 preserveAspectRatio="xMidYMid meet">

<g transform="translate(0.000000,48.000000) scale(0.100000,-0.100000)"
fill="#000000" stroke="none">
<path d="M280 365 c0 -13 -3 -15 -13 -6 -11 8 -18 6 -32 -9 -10 -11 -24 -20
-31 -20 -8 0 -17 -12 -20 -27 -4 -16 -15 -36 -25 -46 -15 -14 -18 -26 -13 -57
5 -30 3 -40 -7 -41 -8 -1 -3 -4 11 -9 23 -7 21 -8 -22 -21 -40 -11 -45 -15
-37 -31 9 -16 24 -18 139 -18 128 0 130 0 130 23 0 12 -11 46 -25 76 -19 41
-23 57 -14 67 7 9 7 14 1 14 -5 0 -8 18 -5 43 4 34 1 46 -16 61 -20 18 -21 18
-21 1z m-5 -114 c3 -5 1 -12 -5 -16 -5 -3 -10 1 -10 9 0 18 6 21 15 7z"/>
<path d="M332 224 c5 -25 35 -41 49 -27 18 18 3 43 -26 43 -19 0 -26 -5 -23
-16z"/>
</g>
</svg>
